<svg width="918" height="320" viewBox="0 0 918 320" fill="none" xmlns="http://www.w3.org/2000/svg">
<path d="M138.88 95.2344C138.88 124.661 115.05 148.517 85.653 148.517C56.2564 148.517 32.4258 124.661 32.4258 95.2344C32.4258 65.8074 56.2564 41.9522 85.653 41.9522C115.05 41.9522 138.88 65.8074 138.88 95.2344Z" fill="#FF4500"/>
<path fill-rule="evenodd" clip-rule="evenodd" d="M112.95 1.4018C113.295 1.69296 113.607 2.03981 113.875 2.44232L125.317 19.6269C152.482 33.9629 171 62.5104 171 95.3876C171 139.08 138.295 175.125 96.0537 180.331V245.435C96.0537 251.27 91.3286 256 85.5 256C79.6714 256 74.9463 251.27 74.9463 245.435V180.331C32.7054 175.125 0 139.08 0 95.3876C0 62.3079 18.7471 33.6114 46.1859 19.3636L57.558 2.39171C57.6249 2.29187 57.6946 2.19546 57.7668 2.1025C58.584 0.837321 60.0057 0 61.6228 0L109.65 0C110.945 0 112.115 0.537455 112.95 1.4018ZM85.5 160.153C121.232 160.153 150.199 131.157 150.199 95.3876C150.199 59.6185 121.232 30.622 85.5 30.622C49.768 30.622 20.8014 59.6185 20.8014 95.3876C20.8014 131.157 49.768 160.153 85.5 160.153ZM147.14 43.3301C147.14 46.4589 144.537 48.9952 141.327 48.9952C138.117 48.9952 135.515 46.4589 135.515 43.3301C135.515 40.2014 138.117 37.6651 141.327 37.6651C144.537 37.6651 147.14 40.2014 147.14 43.3301ZM69.8989 8.26794C66.7734 8.26794 64.2397 10.8043 64.2397 13.933C64.2397 17.0618 66.7734 19.5981 69.8989 19.5981H101.407C104.532 19.5981 107.066 17.0618 107.066 13.933C107.066 10.8043 104.532 8.26794 101.407 8.26794H69.8989Z" fill="#FF4500"/>
<path d="M217.409 162.909H231.409V228.909C231.409 234.879 230.227 239.985 227.864 244.227C225.53 248.47 222.242 251.712 218 253.955C213.758 256.167 208.788 257.273 203.091 257.273C197.848 257.273 193.136 256.318 188.955 254.409C184.803 252.5 181.515 249.727 179.091 246.091C176.697 242.424 175.5 237.97 175.5 232.727H189.455C189.455 235.303 190.045 237.53 191.227 239.409C192.439 241.288 194.091 242.758 196.182 243.818C198.303 244.848 200.727 245.364 203.455 245.364C206.424 245.364 208.939 244.742 211 243.5C213.091 242.227 214.682 240.364 215.773 237.909C216.864 235.455 217.409 232.455 217.409 228.909V162.909ZM294.989 227.045V186.182H308.625V256H295.261V243.909H294.534C292.928 247.636 290.352 250.742 286.807 253.227C283.292 255.682 278.913 256.909 273.67 256.909C269.186 256.909 265.216 255.924 261.761 253.955C258.337 251.955 255.64 249 253.67 245.091C251.731 241.182 250.761 236.348 250.761 230.591V186.182H264.352V228.955C264.352 233.712 265.67 237.5 268.307 240.318C270.943 243.136 274.367 244.545 278.58 244.545C281.125 244.545 283.655 243.909 286.17 242.636C288.716 241.364 290.822 239.439 292.489 236.864C294.186 234.288 295.019 231.015 294.989 227.045ZM379.205 203.227L366.886 205.409C366.371 203.833 365.553 202.333 364.432 200.909C363.341 199.485 361.856 198.318 359.977 197.409C358.098 196.5 355.75 196.045 352.932 196.045C349.083 196.045 345.871 196.909 343.295 198.636C340.72 200.333 339.432 202.53 339.432 205.227C339.432 207.561 340.295 209.439 342.023 210.864C343.75 212.288 346.538 213.455 350.386 214.364L361.477 216.909C367.902 218.394 372.689 220.682 375.841 223.773C378.992 226.864 380.568 230.879 380.568 235.818C380.568 240 379.356 243.727 376.932 247C374.538 250.242 371.189 252.788 366.886 254.636C362.614 256.485 357.659 257.409 352.023 257.409C344.205 257.409 337.826 255.742 332.886 252.409C327.947 249.045 324.917 244.273 323.795 238.091L336.932 236.091C337.75 239.515 339.432 242.106 341.977 243.864C344.523 245.591 347.841 246.455 351.932 246.455C356.386 246.455 359.947 245.53 362.614 243.682C365.28 241.803 366.614 239.515 366.614 236.818C366.614 234.636 365.795 232.803 364.159 231.318C362.553 229.833 360.083 228.712 356.75 227.955L344.932 225.364C338.417 223.879 333.598 221.515 330.477 218.273C327.386 215.03 325.841 210.924 325.841 205.955C325.841 201.833 326.992 198.227 329.295 195.136C331.598 192.045 334.78 189.636 338.841 187.909C342.902 186.152 347.553 185.273 352.795 185.273C360.341 185.273 366.28 186.909 370.614 190.182C374.947 193.424 377.811 197.773 379.205 203.227ZM428.102 186.182V197.091H389.966V186.182H428.102ZM400.193 169.455H413.784V235.5C413.784 238.136 414.178 240.121 414.966 241.455C415.754 242.758 416.769 243.652 418.011 244.136C419.284 244.591 420.663 244.818 422.148 244.818C423.239 244.818 424.193 244.742 425.011 244.591C425.83 244.439 426.466 244.318 426.92 244.227L429.375 255.455C428.587 255.758 427.466 256.061 426.011 256.364C424.557 256.697 422.739 256.879 420.557 256.909C416.981 256.97 413.648 256.333 410.557 255C407.466 253.667 404.966 251.606 403.057 248.818C401.148 246.03 400.193 242.53 400.193 238.318V169.455ZM555.42 193.182H541.239C540.693 190.152 539.678 187.485 538.193 185.182C536.708 182.879 534.89 180.924 532.739 179.318C530.587 177.712 528.178 176.5 525.511 175.682C522.875 174.864 520.072 174.455 517.102 174.455C511.739 174.455 506.936 175.803 502.693 178.5C498.481 181.197 495.148 185.152 492.693 190.364C490.269 195.576 489.057 201.939 489.057 209.455C489.057 217.03 490.269 223.424 492.693 228.636C495.148 233.848 498.496 237.788 502.739 240.455C506.981 243.121 511.754 244.455 517.057 244.455C519.996 244.455 522.784 244.061 525.42 243.273C528.087 242.455 530.496 241.258 532.648 239.682C534.799 238.106 536.617 236.182 538.102 233.909C539.617 231.606 540.663 228.97 541.239 226L555.42 226.045C554.663 230.621 553.193 234.833 551.011 238.682C548.86 242.5 546.087 245.803 542.693 248.591C539.33 251.348 535.481 253.485 531.148 255C526.814 256.515 522.087 257.273 516.966 257.273C508.905 257.273 501.723 255.364 495.42 251.545C489.117 247.697 484.148 242.197 480.511 235.045C476.905 227.894 475.102 219.364 475.102 209.455C475.102 199.515 476.92 190.985 480.557 183.864C484.193 176.712 489.163 171.227 495.466 167.409C501.769 163.561 508.936 161.636 516.966 161.636C521.905 161.636 526.511 162.348 530.784 163.773C535.087 165.167 538.951 167.227 542.375 169.955C545.799 172.652 548.633 175.955 550.875 179.864C553.117 183.742 554.633 188.182 555.42 193.182ZM600.545 257.409C594 257.409 588.288 255.909 583.409 252.909C578.53 249.909 574.742 245.712 572.045 240.318C569.348 234.924 568 228.621 568 221.409C568 214.167 569.348 207.833 572.045 202.409C574.742 196.985 578.53 192.773 583.409 189.773C588.288 186.773 594 185.273 600.545 185.273C607.091 185.273 612.803 186.773 617.682 189.773C622.561 192.773 626.348 196.985 629.045 202.409C631.742 207.833 633.091 214.167 633.091 221.409C633.091 228.621 631.742 234.924 629.045 240.318C626.348 245.712 622.561 249.909 617.682 252.909C612.803 255.909 607.091 257.409 600.545 257.409ZM600.591 246C604.833 246 608.348 244.879 611.136 242.636C613.924 240.394 615.985 237.409 617.318 233.682C618.682 229.955 619.364 225.848 619.364 221.364C619.364 216.909 618.682 212.818 617.318 209.091C615.985 205.333 613.924 202.318 611.136 200.045C608.348 197.773 604.833 196.636 600.591 196.636C596.318 196.636 592.773 197.773 589.955 200.045C587.167 202.318 585.091 205.333 583.727 209.091C582.394 212.818 581.727 216.909 581.727 221.364C581.727 225.848 582.394 229.955 583.727 233.682C585.091 237.409 587.167 240.394 589.955 242.636C592.773 244.879 596.318 246 600.591 246ZM677.67 257.409C671.125 257.409 665.413 255.909 660.534 252.909C655.655 249.909 651.867 245.712 649.17 240.318C646.473 234.924 645.125 228.621 645.125 221.409C645.125 214.167 646.473 207.833 649.17 202.409C651.867 196.985 655.655 192.773 660.534 189.773C665.413 186.773 671.125 185.273 677.67 185.273C684.216 185.273 689.928 186.773 694.807 189.773C699.686 192.773 703.473 196.985 706.17 202.409C708.867 207.833 710.216 214.167 710.216 221.409C710.216 228.621 708.867 234.924 706.17 240.318C703.473 245.712 699.686 249.909 694.807 252.909C689.928 255.909 684.216 257.409 677.67 257.409ZM677.716 246C681.958 246 685.473 244.879 688.261 242.636C691.049 240.394 693.11 237.409 694.443 233.682C695.807 229.955 696.489 225.848 696.489 221.364C696.489 216.909 695.807 212.818 694.443 209.091C693.11 205.333 691.049 202.318 688.261 200.045C685.473 197.773 681.958 196.636 677.716 196.636C673.443 196.636 669.898 197.773 667.08 200.045C664.292 202.318 662.216 205.333 660.852 209.091C659.519 212.818 658.852 216.909 658.852 221.364C658.852 225.848 659.519 229.955 660.852 233.682C662.216 237.409 664.292 240.394 667.08 242.636C669.898 244.879 673.443 246 677.716 246ZM737.886 232.318L737.795 215.727H740.159L767.977 186.182H784.25L752.523 219.818H750.386L737.886 232.318ZM725.386 256V162.909H738.977V256H725.386ZM769.477 256L744.477 222.818L753.841 213.318L786.159 256H769.477Z" fill="#FF4500"/>
</svg>
